<svg xmlns="http://www.w3.org/2000/svg" width="256" height="256" viewBox="0 0 256 256"><g stroke="#694936" stroke-width="5" stroke-linecap="round" stroke-linejoin="round"><path d="M21 64Q128 103 237 62" fill="none" stroke-width="4"/><path d="M31 69L59 72L42 110Z" fill="#efb0a1"/><path d="M73 82L101 85L84 123Z" fill="#e8b967"/><path d="M118 88L146 91L129 129Z" fill="#9bb992"/><path d="M166 81L194 84L177 122Z" fill="#9dbcb8"/><path d="M203 70L231 73L214 111Z" fill="#efb0a1"/><path d="M21 149Q128 186 237 147" fill="none" stroke-width="4"/><path d="M31 152L58 155L42 189Z" fill="#9bb992"/><path d="M75 166L102 169L86 203Z" fill="#efb0a1"/><path d="M121 170L148 173L132 207Z" fill="#e8b967"/><path d="M166 164L193 167L177 201Z" fill="#9bb992"/><path d="M204 153L231 156L215 190Z" fill="#9dbcb8"/></g></svg>