<svg xmlns="http://www.w3.org/2000/svg" width="256" height="256" viewBox="0 0 256 256"><g stroke="#694936" stroke-width="5" stroke-linecap="round" stroke-linejoin="round"><path d="M19 61Q124 101 237 61" fill="none" stroke-width="4"/><path d="M44 68L44 87" fill="none" stroke="#694936" stroke-width="3"/><ellipse cx="44" cy="107" rx="18" ry="24" fill="#fff5db"/><path d="M31 129L57 129" fill="none" stroke="#694936" stroke-width="3"/><path d="M102 82L102 101" fill="none" stroke="#694936" stroke-width="3"/><ellipse cx="102" cy="121" rx="18" ry="24" fill="#e8b967"/><path d="M89 143L115 143" fill="none" stroke="#694936" stroke-width="3"/><path d="M161 81L161 100" fill="none" stroke="#694936" stroke-width="3"/><ellipse cx="161" cy="120" rx="18" ry="24" fill="#efb0a1"/><path d="M148 142L174 142" fill="none" stroke="#694936" stroke-width="3"/><path d="M216 67L216 86" fill="none" stroke="#694936" stroke-width="3"/><ellipse cx="216" cy="106" rx="18" ry="24" fill="#fff5db"/><path d="M203 128L229 128" fill="none" stroke="#694936" stroke-width="3"/><path d="M78 154Q78 171 95 171Q78 171 78 188Q78 171 61 171Q78 171 78 154" fill="#e8b967" stroke-width="2"/><path d="M182 160Q182 175 197 175Q182 175 182 190Q182 175 167 175Q182 175 182 160" fill="#e8b967" stroke-width="2"/></g></svg>