<svg xmlns="http://www.w3.org/2000/svg" width="256" height="256" viewBox="0 0 256 256"><g stroke="#694936" stroke-width="5" stroke-linecap="round" stroke-linejoin="round"><rect x="32" y="143" width="197" height="32" rx="8" fill="#c39b70"/><path d="M54 172L54 221" fill="none" stroke="#694936" stroke-width="11"/><path d="M207 172L207 221" fill="none" stroke="#694936" stroke-width="11"/><g transform="translate(35 -10) scale(.69)"><path d="M187 136 C235 124 226 196 186 178" fill="#9dbcb8"/><path d="M100 126 Q145 138 190 126 L184 198 Q145 222 106 198 Z" fill="#9dbcb8"/><ellipse cx="145" cy="126" rx="45" ry="12" fill="#a67a54"/><path d="M134 104q-12 -14 0 -28m22 24q-12 -14 0 -28" fill="none" stroke-width="4"/></g><rect x="52" y="69" width="50" height="76" rx="9" fill="#9bb992"/><rect x="49" y="59" width="55" height="17" rx="5" fill="#e8b967"/><g transform="translate(77 116) rotate(0) scale(0.55)"><path d="M0 0Q-42 -8 -31 -41Q0 -40 0 0" fill="#9bb992"/><path d="M0 0Q30 -45 49 -27Q45 1 0 0" fill="#b7cba0"/></g></g></svg>